HIERARCHY
ROOT Hips
{
    OFFSET   0.000000   0.000000   0.000000
    CHANNELS 6 Xposition Yposition Zposition Zrotation Xrotation Yrotation
    JOINT Chest
    {
        OFFSET   0.000000   8.007230   0.000000
        CHANNELS 3 Zrotation Xrotation Yrotation
        JOINT Chest2
        {
            OFFSET   0.000000  22.077100   0.000000
            CHANNELS 3 Zrotation Xrotation Yrotation
            JOINT Neck
            {
                OFFSET   0.000000  23.254800  -0.000021
                CHANNELS 3 Zrotation Xrotation Yrotation
                JOINT Head
                {
                    OFFSET   0.000000  14.370000   1.956610
                    CHANNELS 3 Zrotation Xrotation Yrotation
                    End Site
                    {
                        OFFSET   0.000000  19.566000   0.000000
                    }
                }
            }
            JOINT LeftCollar
            {
                OFFSET   3.911900  19.017000  -0.467063
                CHANNELS 3 Zrotation Xrotation Yrotation
                JOINT LeftShoulder
                {
                    OFFSET  10.383700   0.000000   0.000000
                    CHANNELS 3 Zrotation Xrotation Yrotation
                    JOINT LeftElbow
                    {
                        OFFSET  26.662100   0.001529   0.000325
                        CHANNELS 3 Zrotation Xrotation Yrotation
                        JOINT LeftWrist
                        {
                            OFFSET  28.869000  -0.000011  -0.000096
                            CHANNELS 3 Zrotation Xrotation Yrotation
                            JOINT LeftFinger0
                            {
                                OFFSET   2.044650  -2.323460   3.252850
                                CHANNELS 3 Zrotation Xrotation Yrotation
                                JOINT LeftFinger01
                                {
                                    OFFSET   3.088130   0.000000   0.000000
                                    CHANNELS 3 Zrotation Xrotation Yrotation
                                    JOINT LeftFinger02
                                    {
                                        OFFSET   2.639460   0.000000   0.000000
                                        CHANNELS 3 Zrotation Xrotation Yrotation
                                        End Site
                                        {
                                            OFFSET   2.582190   0.000000   0.000000
                                        }
                                    }
                                }
                            }
                            JOINT LeftFinger1
                            {
                                OFFSET   8.364480   0.000000   3.252850
                                CHANNELS 3 Zrotation Xrotation Yrotation
                                JOINT LeftFinger11
                                {
                                    OFFSET   4.646930   0.000000   0.000000
                                    CHANNELS 3 Zrotation Xrotation Yrotation
                                    JOINT LeftFinger12
                                    {
                                        OFFSET   2.323460   0.000000   0.000000
                                        CHANNELS 3 Zrotation Xrotation Yrotation
                                        End Site
                                        {
                                            OFFSET   2.273050   0.000000   0.000000
                                        }
                                    }
                                }
                            }
                            JOINT LeftFinger2
                            {
                                OFFSET   8.364480   0.000016   1.078090
                                CHANNELS 3 Zrotation Xrotation Yrotation
                                JOINT LeftFinger21
                                {
                                    OFFSET   5.111620   0.000000   0.000000
                                    CHANNELS 3 Zrotation Xrotation Yrotation
                                    JOINT LeftFinger22
                                    {
                                        OFFSET   2.788160   0.000017   0.000000
                                        CHANNELS 3 Zrotation Xrotation Yrotation
                                        End Site
                                        {
                                            OFFSET   2.727660   0.000000   0.000000
                                        }
                                    }
                                }
                            }
                            JOINT LeftFinger3
                            {
                                OFFSET   7.899780   0.000015  -1.078090
                                CHANNELS 3 Zrotation Xrotation Yrotation
                                JOINT LeftFinger31
                                {
                                    OFFSET   4.646920   0.000000   0.000000
                                    CHANNELS 3 Zrotation Xrotation Yrotation
                                    JOINT LeftFinger32
                                    {
                                        OFFSET   2.323470   0.000000   0.000000
                                        CHANNELS 3 Zrotation Xrotation Yrotation
                                        End Site
                                        {
                                            OFFSET   2.273050   0.000000   0.000000
                                        }
                                    }
                                }
                            }
                            JOINT LeftFinger4
                            {
                                OFFSET   7.435090   0.000000  -3.252850
                                CHANNELS 3 Zrotation Xrotation Yrotation
                                JOINT LeftFinger41
                                {
                                    OFFSET   3.717550   0.000000   0.000000
                                    CHANNELS 3 Zrotation Xrotation Yrotation
                                    JOINT LeftFinger42
                                    {
                                        OFFSET   1.858760   0.000000   0.000000
                                        CHANNELS 3 Zrotation Xrotation Yrotation
                                        End Site
                                        {
                                            OFFSET   1.818440   0.000000   0.000000
                                        }
                                    }
                                }
                            }
                        }
                    }
                }
            }
            JOINT RightCollar
            {
                OFFSET  -3.911900  19.017000  -0.467062
                CHANNELS 3 Zrotation Xrotation Yrotation
                JOINT RightShoulder
                {
                    OFFSET -10.383700   0.000015   0.000000
                    CHANNELS 3 Zrotation Xrotation Yrotation
                    JOINT RightElbow
                    {
                        OFFSET -26.662100   0.001341   0.000385
                        CHANNELS 3 Zrotation Xrotation Yrotation
                        JOINT RightWrist
                        {
                            OFFSET -28.869000   0.000025  -0.000080
                            CHANNELS 3 Zrotation Xrotation Yrotation
                            JOINT RightFinger0
                            {
                                OFFSET  -2.044650  -2.323490   3.252850
                                CHANNELS 3 Zrotation Xrotation Yrotation
                                JOINT RightFinger01
                                {
                                    OFFSET  -3.088130   0.000000   0.000000
                                    CHANNELS 3 Zrotation Xrotation Yrotation
                                    JOINT RightFinger02
                                    {
                                        OFFSET  -2.639460   0.000000   0.000000
                                        CHANNELS 3 Zrotation Xrotation Yrotation
                                        End Site
                                        {
                                            OFFSET  -2.582190   0.000000   0.000000
                                        }
                                    }
                                }
                            }
                            JOINT RightFinger1
                            {
                                OFFSET  -8.364480   0.000000   3.252850
                                CHANNELS 3 Zrotation Xrotation Yrotation
                                JOINT RightFinger11
                                {
                                    OFFSET  -4.646930   0.000000   0.000000
                                    CHANNELS 3 Zrotation Xrotation Yrotation
                                    JOINT RightFinger12
                                    {
                                        OFFSET  -2.323470   0.000000   0.000000
                                        CHANNELS 3 Zrotation Xrotation Yrotation
                                        End Site
                                        {
                                            OFFSET  -2.273050   0.000000   0.000000
                                        }
                                    }
                                }
                            }
                            JOINT RightFinger2
                            {
                                OFFSET  -8.364480   0.000000   1.078090
                                CHANNELS 3 Zrotation Xrotation Yrotation
                                JOINT RightFinger21
                                {
                                    OFFSET  -5.111610   0.000000   0.000000
                                    CHANNELS 3 Zrotation Xrotation Yrotation
                                    JOINT RightFinger22
                                    {
                                        OFFSET  -2.788160   0.000000   0.000000
                                        CHANNELS 3 Zrotation Xrotation Yrotation
                                        End Site
                                        {
                                            OFFSET  -2.727660   0.000000   0.000000
                                        }
                                    }
                                }
                            }
                            JOINT RightFinger3
                            {
                                OFFSET  -7.899780   0.000000  -1.078090
                                CHANNELS 3 Zrotation Xrotation Yrotation
                                JOINT RightFinger31
                                {
                                    OFFSET  -4.646920   0.000000   0.000000
                                    CHANNELS 3 Zrotation Xrotation Yrotation
                                    JOINT RightFinger32
                                    {
                                        OFFSET  -2.323470   0.000000   0.000000
                                        CHANNELS 3 Zrotation Xrotation Yrotation
                                        End Site
                                        {
                                            OFFSET  -2.273050   0.000000   0.000000
                                        }
                                    }
                                }
                            }
                            JOINT RightFinger4
                            {
                                OFFSET  -7.435090   0.000000  -3.252850
                                CHANNELS 3 Zrotation Xrotation Yrotation
                                JOINT RightFinger41
                                {
                                    OFFSET  -3.717550   0.000000   0.000000
                                    CHANNELS 3 Zrotation Xrotation Yrotation
                                    JOINT RightFinger42
                                    {
                                        OFFSET  -1.858770   0.000000   0.000000
                                        CHANNELS 3 Zrotation Xrotation Yrotation
                                        End Site
                                        {
                                            OFFSET  -1.818440   0.000000   0.000000
                                        }
                                    }
                                }
                            }
                        }
                    }
                }
            }
        }
    }
    JOINT LeftHip
    {
        OFFSET   9.783010   0.000000   0.000000
        CHANNELS 3 Zrotation Xrotation Yrotation
        JOINT LeftKnee
        {
            OFFSET   0.000070 -41.789100   0.000028
            CHANNELS 3 Zrotation Xrotation Yrotation
            JOINT LeftAnkle
            {
                OFFSET   0.000087 -41.133200  -0.000100
                CHANNELS 3 Zrotation Xrotation Yrotation
                JOINT LeftToe
                {
                    OFFSET   0.000000  -6.358960  14.674500
                    CHANNELS 3 Zrotation Xrotation Yrotation
                    End Site
                    {
                        OFFSET   0.000000   0.000000   3.913200
                    }
                }
            }
        }
    }
    JOINT RightHip
    {
        OFFSET  -9.783020   0.000000   0.000000
        CHANNELS 3 Zrotation Xrotation Yrotation
        JOINT RightKnee
        {
            OFFSET   0.000044 -41.789100  -0.000870
            CHANNELS 3 Zrotation Xrotation Yrotation
            JOINT RightAnkle
            {
                OFFSET  -0.000090 -41.133200  -0.000245
                CHANNELS 3 Zrotation Xrotation Yrotation
                JOINT RightToe
                {
                    OFFSET   0.000000  -6.358960  14.674500
                    CHANNELS 3 Zrotation Xrotation Yrotation
                    End Site
                    {
                        OFFSET   0.000000   0.000000   3.913200
                    }
                }
            }
        }
    }
}
MOTION
Frames: 4
Frame Time:   0.016667
 -5.972750  88.226100   4.481430  -3.120960 -20.203500   0.647753   1.903330  12.782700  -2.788460   4.640080  25.444200  -6.265490  13.427000   9.913290  -2.353390  23.529300  16.806100  16.589900  -2.127080   1.906310  10.632500 -65.106300  29.614000 -20.366200  -5.231890 -17.164800 -18.394000  10.578700  -4.647850  12.233000  44.671000  35.280400 -75.233200 -21.142700  -0.002492  -0.000924  -5.571340  -0.003434  -0.003969 -29.678400   7.290030 -12.552800 -24.939300   0.000619   0.001150 -17.457500  -0.001008   0.000901 -28.478900   1.907610  -3.511420 -36.589000  -0.004068   0.000735 -24.368200   0.002034   0.001092 -26.681000   1.446250  -2.875270 -26.717500  -0.007952   0.000387 -17.793800   0.000899   0.001343 -26.705500   0.444808  -0.884212 -40.063700   0.002306  -0.000368 -26.682400  -0.000597   0.001007   2.379900  -3.933980   2.164590  58.557500   5.352350  65.254000  -1.468860 -32.250800 109.033000  -6.531780 -18.896900  17.785100 -37.558200  31.926100  70.147400  29.538400   0.037735  -0.021310   9.769220   0.021350   0.008917  43.246000  11.436400  11.760100  36.351400   0.051161  -0.050228  26.418600   0.018876  -0.058540  28.780600  -0.890254  -1.694530  46.942200   0.019565  -0.031676  30.660500   0.007820  -0.027732  31.486900  -3.028660  -5.080730  49.505700  -0.002496  -0.019650  32.744600   0.001467  -0.019417  42.183000  -3.766070  -4.185920  63.492200  -0.006888  -0.052669  42.285800  -0.028875  -0.020789   8.834770   7.260270   0.192711  -3.540270  29.319800  11.091200  -8.481870 -16.246200   3.134370  -0.000000   0.000000   0.000000   9.784100  20.354100 -10.798900   0.490252   3.245910  -9.326660 -13.322800  -1.623680  -1.415070   0.000000   0.000000   0.000000
 -5.952860  88.229200   4.473210  -3.135050 -20.228700   0.651746   1.868820  12.759900  -2.790880   4.567040  25.400600  -6.260700  13.414100   9.976340  -2.364480  23.518000  16.916600  16.596600  -2.134920   1.945130  10.664000 -65.125200  29.632600 -20.359500  -5.182610 -17.167500 -18.266500  10.636300  -4.388370  12.182900  44.607000  35.205400 -75.149200 -21.121200  -0.002493  -0.000920  -5.560600  -0.003435  -0.003969 -29.694000   7.329080 -12.609800 -24.956300   0.000622   0.001152 -17.469700  -0.001007   0.000901 -28.478500   1.948420  -3.585870 -36.623400  -0.004068   0.000737 -24.391100   0.002034   0.001090 -26.696000   1.479650  -2.942030 -26.734000  -0.007950   0.000387 -17.805300   0.000899   0.001339 -26.720800   0.476838  -0.947294 -40.087500   0.002308  -0.000369 -26.698200  -0.000596   0.001008   2.389050  -3.812190   2.178250  58.634400   5.383050  65.001200  -1.434500 -32.140600 109.263000  -9.686860 -19.514700  16.484500 -36.324700  32.540000  70.054800  32.313100   0.013406  -0.008851  11.156600   0.008426   0.007700  48.101300  11.410300  10.150600  40.173400   0.036485  -0.033580  29.784900   0.013797  -0.037012  32.880700  -1.488890  -2.191900  51.064700   0.012760  -0.009601  33.812200   0.007537  -0.014059  36.706500  -3.727970  -5.096970  53.167500  -0.002459  -0.007204  35.772600   0.001905  -0.012217  47.140800  -4.564280  -4.275870  70.981700   0.002253  -0.036125  47.273800  -0.017782  -0.018612   8.846100   7.267010   0.199669  -3.536690  29.330700  11.073400  -8.464900 -16.246800   3.142110   0.000000   0.000000  -0.000000   9.793000  20.368700 -10.771000   0.481995   3.244750  -9.350910 -13.309300  -1.619620  -1.415840  -0.000000   0.000000  -0.000000
 -5.935430  88.232900   4.463600  -3.147550 -20.259000   0.660644   1.830660  12.740300  -2.792520   4.486290  25.363600  -6.252960  13.417200  10.040700  -2.381570  23.552800  17.026300  16.606100  -2.145150   1.996730  10.709900 -65.150700  29.637300 -20.345700  -5.141120 -17.127900 -18.208500  10.704200  -4.189530  12.127900  44.501400  35.088200 -75.023300 -21.108000  -0.002495  -0.000916  -5.553980  -0.003438  -0.003969 -29.726800   7.365290 -12.653400 -24.991000   0.000625   0.001154 -17.493700  -0.001007   0.000902 -28.484900   1.971000  -3.626820 -36.708400  -0.004068   0.000739 -24.447800   0.002034   0.001089 -26.735700   1.501200  -2.977170 -26.774700  -0.007948   0.000388 -17.832000   0.000899   0.001335 -26.764000   0.501968  -0.995154 -40.152600   0.002310  -0.000369 -26.741700  -0.000596   0.001009   2.421780  -3.594780   2.210450  58.798000   5.383280  64.738800  -1.536590 -32.080300 109.402000 -12.542200 -19.853600  15.882000 -34.821400  32.682700  70.022600  34.783900  -0.004305   0.003064  12.391900  -0.001175   0.004646  52.533200  11.257600   8.545750  43.659800   0.015395  -0.016931  32.825700   0.002577  -0.015484  37.286700  -2.087020  -2.689770  54.020300   0.002562   0.006712  36.339500   0.005555  -0.000411  42.726400  -4.865120  -5.127140  54.938700  -0.002423   0.001957  38.314500   0.002123  -0.005327  51.984700  -5.797510  -4.441350  78.304700   0.008652  -0.019580  52.150900  -0.006690  -0.012519   8.855120   7.269400   0.210078  -3.525490  29.353300  11.040300  -8.445830 -16.248600   3.147600   0.000000   0.000000  -0.000000   9.805740  20.394700 -10.745500   0.476793   3.242560  -9.393700 -13.297600  -1.616560  -1.417040  -0.000000   0.000000   0.000000
 -5.921010  88.238300   4.450090  -3.157040 -20.291400   0.676429   1.791360  12.730400  -2.790200   4.403240  25.346500  -6.237530  13.439700  10.102700  -2.400100  23.617900  17.115600  16.745000  -2.157090   2.059420  10.734700 -65.215000  29.537900 -20.300100  -5.113350 -17.022200 -18.230400  10.791100  -4.121910  12.084200  44.397700  34.995600 -74.937800 -21.094000  -0.002497  -0.000920  -5.546980  -0.003441  -0.003973 -29.789300   7.399080 -12.672500 -25.046400   0.000621   0.001149 -17.532500  -0.001010   0.000904 -28.496700   1.970920  -3.626270 -36.852000  -0.004068   0.000738 -24.543400   0.002036   0.001090 -26.804300   1.506440  -2.976490 -26.843300  -0.007949   0.000387 -17.877700   0.000898   0.001336 -26.844000   0.513565  -1.013870 -40.272800   0.002307  -0.000368 -26.821800  -0.000596   0.001008   2.488900  -3.360840   2.256660  59.212100   5.265070  64.474200  -1.782150 -31.939300 109.399000 -14.784600 -19.744900  15.917200 -33.513900  32.530300  70.094800  36.550500   0.008837  -0.007601  13.275200   0.004684  -0.000444  55.666300  10.910300   7.271130  46.112900   0.004415  -0.035805  34.837300  -0.016909  -0.026472  39.965800  -2.039070  -2.512520  55.880800  -0.004206  -0.014873  37.955400  -0.007993  -0.007059  48.828100  -5.917430  -5.146630  54.725200  -0.002440   0.001729  39.979100  -0.008258  -0.005603  55.684300  -6.740100  -4.648900  83.930900  -0.030350  -0.038236  55.898000  -0.032009  -0.004795   8.866710   7.273200   0.215443  -3.517560  29.380000  11.006700  -8.424610 -16.260100   3.154730   0.000000   0.000000   0.000000   9.820450  20.420700 -10.724100   0.474106   3.239700  -9.435220 -13.290900  -1.614160  -1.417990  -0.000000   0.000000   0.000000
